<?xml version="1.0" encoding="utf-8"?>
<!-- Generator: Adobe Illustrator 16.0.0, SVG Export Plug-In . SVG Version: 6.00 Build 0)  -->
<!DOCTYPE svg PUBLIC "-//W3C//DTD SVG 1.1//EN" "http://www.w3.org/Graphics/SVG/1.1/DTD/svg11.dtd">
<svg version="1.1" id="Layer_1" xmlns="http://www.w3.org/2000/svg" xmlns:xlink="http://www.w3.org/1999/xlink" x="0px" y="0px"
	 width="111.447px" height="111.396px" viewBox="0 0 111.447 111.396" enable-background="new 0 0 111.447 111.396"
	 xml:space="preserve">
<g>
	<circle cx="8.177" cy="8.177" r="8.176"/>
	<circle cx="31.95" cy="8.178" r="8.176"/>
	<circle cx="55.723" cy="8.177" r="8.176"/>
	<circle cx="79.496" cy="8.177" r="8.176"/>
	<circle cx="103.269" cy="8.178" r="8.176"/>
	<circle cx="8.178" cy="31.942" r="8.176"/>
	<circle cx="31.952" cy="31.942" r="8.176"/>
	<circle cx="55.725" cy="31.942" r="8.176"/>
	<circle cx="79.497" cy="31.942" r="8.175"/>
	<circle cx="103.27" cy="31.942" r="8.176"/>
	<g>
		<circle cx="8.176" cy="55.701" r="8.176"/>
		<circle cx="31.949" cy="55.702" r="8.176"/>
		<circle cx="55.722" cy="55.701" r="8.177"/>
		<circle cx="79.495" cy="55.701" r="8.176"/>
		<circle cx="103.268" cy="55.702" r="8.177"/>
	</g>
	<g>
		<circle cx="8.176" cy="79.462" r="8.176"/>
		<circle cx="31.949" cy="79.462" r="8.176"/>
		<circle cx="55.722" cy="79.462" r="8.177"/>
		<circle cx="79.495" cy="79.462" r="8.176"/>
		<circle cx="103.269" cy="79.462" r="8.176"/>
	</g>
	<g>
		<circle cx="8.178" cy="103.219" r="8.176"/>
		<circle cx="31.951" cy="103.221" r="8.176"/>
		<circle cx="55.724" cy="103.219" r="8.177"/>
		<circle cx="79.497" cy="103.219" r="8.176"/>
		<circle cx="103.271" cy="103.221" r="8.176"/>
	</g>
</g>
</svg>
